<?xml version="1.0" standalone="no"?>
<!DOCTYPE svg PUBLIC "-//W3C//DTD SVG 20010904//EN"
 "http://www.w3.org/TR/2001/REC-SVG-20010904/DTD/svg10.dtd">
<svg version="1.0" xmlns="http://www.w3.org/2000/svg"
 width="606.000000pt" height="342.000000pt" viewBox="0 0 606.000000 342.000000"
 preserveAspectRatio="xMidYMid meet">

<g transform="translate(0.000000,342.000000) scale(0.100000,-0.100000)"
fill="#0D245E" stroke="none">
<path d="M1374 3335 c-83 -40 -154 -81 -158 -90 -10 -28 -7 -1715 3 -1715 6 0
45 16 88 36 147 67 345 128 483 149 25 3 53 9 63 11 16 5 17 50 17 757 0 414
-4 757 -8 764 -9 14 -281 150 -314 158 -15 3 -73 -20 -174 -70z"/>
<path d="M2758 3333 l-153 -78 -3 -762 -2 -762 37 -6 c193 -30 458 -107 576
-167 31 -15 38 -16 43 -5 3 8 1 394 -3 858 l-8 844 -154 78 c-85 42 -160 77
-167 77 -7 0 -82 -35 -166 -77z"/>
<path d="M2113 2681 c-69 -34 -126 -68 -132 -79 -7 -14 -11 -118 -11 -304 l0
-284 272 4 c150 2 274 5 277 7 7 7 0 580 -7 587 -13 13 -252 128 -264 128 -7
0 -68 -27 -135 -59z"/>
<path d="M2005 1660 c-394 -41 -754 -154 -1000 -314 -47 -31 -85 -57 -85 -60
0 -2 28 11 63 29 230 122 552 214 902 257 139 16 595 17 725 0 353 -46 605
-114 848 -230 128 -61 128 -61 47 -7 -223 148 -527 256 -865 306 -156 23 -496
33 -635 19z"/>
<path d="M4050 1369 c-164 -32 -303 -179 -332 -351 -36 -219 125 -443 341
-477 96 -15 248 8 316 47 l30 18 3 138 c2 93 -1 143 -9 152 -15 19 -162 20
-177 1 -6 -7 -12 -46 -14 -87 l-3 -75 -62 -3 c-134 -6 -223 87 -223 233 1 85
60 177 133 204 45 17 127 13 176 -9 24 -11 46 -20 50 -20 16 0 103 139 97 155
-8 23 -104 64 -173 75 -67 11 -91 11 -153 -1z"/>
<path d="M91 1346 c-8 -9 -10 -125 -9 -407 l3 -394 100 0 100 0 3 168 2 167
140 0 140 0 0 -159 c0 -124 3 -161 14 -170 9 -8 46 -11 103 -9 l88 3 0 405 0
405 -90 3 c-116 4 -115 5 -115 -155 l0 -123 -140 0 -140 0 0 134 c0 113 -2
135 -16 140 -32 12 -171 6 -183 -8z"/>
<path d="M1213 1250 c-97 -20 -200 -101 -249 -197 -26 -53 -29 -67 -29 -158 0
-91 3 -105 29 -158 33 -64 102 -134 162 -165 179 -91 406 -12 490 170 25 55
29 75 29 153 0 78 -4 98 -28 150 -73 156 -234 238 -404 205z m158 -203 c52
-34 82 -100 75 -165 -9 -99 -70 -162 -155 -162 -99 0 -161 67 -161 175 0 72
22 120 70 153 45 31 124 31 171 -1z"/>
<path d="M2079 1250 c-42 -12 -77 -39 -100 -78 l-22 -37 -14 45 c-16 57 -35
70 -94 70 -82 0 -79 14 -79 -360 0 -326 0 -329 21 -341 31 -16 167 -8 179 11
5 8 10 109 10 224 l0 208 34 34 c28 28 41 34 78 34 91 -1 98 -22 98 -284 0
-250 -6 -236 109 -236 104 0 101 -8 101 245 l0 213 29 31 c23 25 37 31 71 31
100 0 110 -25 110 -288 0 -148 3 -211 12 -220 16 -16 160 -16 176 0 9 9 12 76
12 240 0 183 -3 237 -16 275 -27 79 -67 128 -131 160 -104 50 -212 33 -287
-46 l-29 -30 -45 39 c-64 57 -154 81 -223 60z"/>
<path d="M5660 1251 c-51 -16 -88 -41 -117 -77 l-30 -37 -11 46 c-14 54 -33
67 -96 67 -79 0 -76 12 -76 -360 0 -380 -9 -350 109 -350 104 0 101 -7 101
234 0 195 1 205 22 232 35 46 50 53 101 54 40 0 53 -5 85 -34 l37 -34 3 -213
c2 -132 7 -218 14 -226 14 -17 159 -18 176 -1 9 9 12 75 12 235 0 247 -9 299
-68 373 -52 66 -191 114 -262 91z"/>
<path d="M3138 1233 c-53 -18 -132 -79 -166 -130 -68 -99 -81 -253 -32 -358
34 -72 125 -158 197 -186 88 -34 199 -32 278 4 66 31 115 72 115 97 0 9 -16
35 -36 58 -38 44 -72 54 -94 27 -21 -25 -116 -48 -168 -40 -35 5 -55 16 -84
45 -21 21 -38 47 -38 59 0 21 3 21 221 21 133 0 228 4 240 10 16 9 19 22 19
84 0 61 -5 83 -31 134 -37 76 -111 144 -185 171 -66 25 -168 27 -236 4z m176
-157 c34 -14 88 -74 80 -88 -3 -4 -66 -8 -140 -8 -146 0 -152 3 -111 52 44 55
107 71 171 44z"/>
<path d="M4510 1235 c-11 -13 11 -73 124 -351 l138 -336 -47 -119 c-26 -65
-45 -127 -43 -136 3 -15 17 -18 90 -21 81 -3 88 -1 102 20 8 13 87 207 176
431 89 225 170 429 181 454 28 65 18 73 -92 73 -81 0 -90 -2 -103 -22 -7 -13
-46 -119 -86 -236 -40 -117 -77 -209 -81 -205 -4 4 -33 80 -63 168 -98 278
-97 276 -123 286 -41 15 -159 11 -173 -6z"/>
</g>
</svg>
