<?xml version="1.0" standalone="no"?>
<!DOCTYPE svg PUBLIC "-//W3C//DTD SVG 20010904//EN"
 "http://www.w3.org/TR/2001/REC-SVG-20010904/DTD/svg10.dtd">
<svg version="1.0" xmlns="http://www.w3.org/2000/svg"
 width="316.000000pt" height="224.000000pt" viewBox="0 0 316.000000 224.000000"
 preserveAspectRatio="xMidYMid meet">

<g transform="translate(0.000000,224.000000) scale(0.100000,-0.100000)"
fill="#FFFFFF" stroke="none">
<path d="M704 2155 c-83 -40 -154 -81 -158 -90 -10 -28 -7 -1715 3 -1715 6 0
45 16 88 36 147 67 345 128 483 149 25 3 53 9 63 11 16 5 17 50 17 757 0 414
-4 757 -8 764 -9 14 -281 150 -314 158 -15 3 -73 -20 -174 -70z"/>
<path d="M2088 2153 l-153 -78 -3 -762 -2 -762 37 -6 c193 -30 458 -107 576
-167 31 -15 38 -16 43 -5 3 8 1 394 -3 858 l-8 844 -154 78 c-85 42 -160 77
-167 77 -7 0 -82 -35 -166 -77z"/>
<path d="M1443 1501 c-69 -34 -126 -68 -132 -79 -7 -14 -11 -118 -11 -304 l0
-284 272 4 c150 2 274 5 277 7 7 7 0 580 -7 587 -13 13 -252 128 -264 128 -7
0 -68 -27 -135 -59z"/>
<path d="M1335 480 c-394 -41 -754 -154 -1000 -314 -47 -31 -85 -57 -85 -60 0
-2 28 11 62 29 231 122 553 214 903 257 139 16 595 17 725 0 353 -46 605 -114
848 -230 128 -61 128 -61 47 -7 -223 148 -527 256 -865 306 -156 23 -496 33
-635 19z"/>
</g>
</svg>
